<svg width="32" height="30" viewBox="0 0 32 30" fill="none" xmlns="http://www.w3.org/2000/svg">
<path fill-rule="evenodd" clip-rule="evenodd" d="M5.19292 26.9311L3.14336 17.0125L3.18584 16.9913C2.3409 16.9913 1.53057 16.6556 0.933111 16.0582C0.33565 15.4607 0 14.6504 0 13.8054C0 12.9605 0.33565 12.1502 0.933111 11.5527C1.53057 10.9552 2.3409 10.6196 3.18584 10.6196H9.55752V6.3718C9.55752 4.68193 10.2288 3.06127 11.4237 1.86634C12.6187 0.671422 14.2393 0.00012207 15.9292 0.00012207C17.6191 0.00012207 19.2397 0.671422 20.4347 1.86634C21.6296 3.06127 22.3009 4.68193 22.3009 6.3718V10.6196H28.4389C29.2839 10.5802 30.1099 10.878 30.7352 11.4476C31.3606 12.0172 31.734 12.8118 31.7734 13.6568C31.8129 14.5017 31.515 15.3277 30.9455 15.953C30.3759 16.5784 29.5812 16.9518 28.7363 16.9913L26.6973 26.9311C26.5191 27.7969 26.0479 28.5748 25.3632 29.1338C24.6784 29.6928 23.822 29.9987 22.938 30.0001H21.6956C21.4139 30.0001 21.1438 29.8882 20.9447 29.6891C20.7455 29.4899 20.6336 29.2198 20.6336 28.9382C20.6336 28.6565 20.7455 28.3864 20.9447 28.1873C21.1438 27.9881 21.4139 27.8762 21.6956 27.8762H22.938C23.3337 27.8752 23.717 27.7387 24.0242 27.4895C24.3315 27.2402 24.544 26.8932 24.6265 26.5063L26.5487 17.0231H5.30973L7.24248 26.5063C7.3228 26.8924 7.5333 27.2391 7.83875 27.4885C8.14419 27.7379 8.52604 27.8748 8.92035 27.8762H12.4142C12.6958 27.8762 12.9659 27.9881 13.1651 28.1873C13.3642 28.3864 13.4761 28.6565 13.4761 28.9382C13.4761 29.2198 13.3642 29.4899 13.1651 29.6891C12.9659 29.8882 12.6958 30.0001 12.4142 30.0001H8.95221C8.06827 29.9987 7.21181 29.6928 6.52708 29.1338C5.84234 28.5748 5.37117 27.7969 5.19292 26.9311ZM12.8831 3.3894C12.0865 4.18602 11.6389 5.26646 11.6389 6.39304V10.6408H20.1345V6.39304C20.1345 5.26646 19.687 4.18602 18.8904 3.3894C18.0937 2.59279 17.0133 2.14525 15.8867 2.14525C14.7601 2.14525 13.6797 2.59279 12.8831 3.3894ZM28.4389 12.7647H3.18584C2.90419 12.7647 2.63408 12.8766 2.43493 13.0758C2.23578 13.2749 2.12389 13.545 2.12389 13.8267C2.12389 14.1083 2.23578 14.3784 2.43493 14.5776C2.63408 14.7767 2.90419 14.8886 3.18584 14.8886H28.4389C28.7206 14.8886 28.9907 14.7767 29.1898 14.5776C29.389 14.3784 29.5009 14.1083 29.5009 13.8267C29.5009 13.545 29.389 13.2749 29.1898 13.0758C28.9907 12.8766 28.7206 12.7647 28.4389 12.7647ZM21.9292 19.4975C21.9762 19.3612 21.9949 19.2167 21.9842 19.073C21.9735 18.9292 21.9337 18.7891 21.8671 18.6612C21.8005 18.5334 21.7086 18.4204 21.5969 18.3292C21.4853 18.238 21.3562 18.1705 21.2176 18.1308C21.079 18.0911 20.9338 18.08 20.7908 18.0983C20.6478 18.1165 20.51 18.1637 20.3858 18.2369C20.2616 18.3101 20.1536 18.4079 20.0684 18.5242C19.9833 18.6405 19.9226 18.7729 19.8903 18.9134L18.1912 24.8709C18.1442 25.0072 18.1255 25.1517 18.1362 25.2955C18.1469 25.4392 18.1868 25.5793 18.2533 25.7072C18.3199 25.8351 18.4118 25.948 18.5235 26.0392C18.6352 26.1304 18.7642 26.1979 18.9028 26.2376C19.0414 26.2773 19.1866 26.2884 19.3296 26.2702C19.4726 26.2519 19.6104 26.2047 19.7346 26.1315C19.8588 26.0583 19.9668 25.9606 20.052 25.8442C20.1372 25.7279 20.1978 25.5955 20.2301 25.455L21.9292 19.4975ZM10.4176 18.2019C10.1473 18.2808 9.91927 18.4638 9.78385 18.7107C9.64842 18.9577 9.61665 19.2483 9.69551 19.5187L11.3946 25.4762C11.427 25.6167 11.4876 25.7492 11.5728 25.8655C11.658 25.9818 11.7659 26.0795 11.8901 26.1527C12.0143 26.226 12.1521 26.2731 12.2951 26.2914C12.4381 26.3096 12.5833 26.2986 12.7219 26.2589C12.8605 26.2192 12.9896 26.1517 13.1012 26.0605C13.2129 25.9693 13.3048 25.8563 13.3714 25.7284C13.438 25.6005 13.4778 25.4605 13.4885 25.3167C13.4992 25.1729 13.4805 25.0285 13.4336 24.8922L11.7344 18.9346C11.6965 18.7998 11.6323 18.6738 11.5455 18.5639C11.4586 18.454 11.3509 18.3623 11.2285 18.2942C11.1061 18.2261 10.9715 18.1829 10.8323 18.167C10.6931 18.1512 10.5522 18.163 10.4176 18.2019Z" fill="url(#paint0_linear_78_68)"/>
<defs>
<linearGradient id="paint0_linear_78_68" x1="-5.56683e-07" y1="12.8001" x2="37.3992" y2="23.1356" gradientUnits="userSpaceOnUse">
<stop stop-color="#12C2E9"/>
<stop offset="0.46314" stop-color="#C471ED"/>
<stop offset="1" stop-color="#F64F59"/>
</linearGradient>
</defs>
</svg>
