<svg width="115" height="109" viewBox="0 0 115 109" fill="none" xmlns="http://www.w3.org/2000/svg">
<rect opacity="0.2" width="115" height="109" rx="10" fill="#070D10"/>
<path d="M57.4999 54.5004C63.5786 54.5004 69.7142 50.0931 69.7142 40.2504C69.7142 37.011 68.4274 33.9042 66.1367 31.6136C63.8461 29.323 60.7394 28.0361 57.4999 28.0361C54.2605 28.0361 51.1537 29.323 48.8631 31.6136C46.5725 33.9042 45.2856 37.011 45.2856 40.2504C45.2856 50.0931 51.4213 54.5004 57.4999 54.5004ZM57.4999 32.1076C59.6596 32.1076 61.7307 32.9655 63.2578 34.4925C64.7849 36.0196 65.6428 38.0908 65.6428 40.2504C65.6428 46.6242 62.5892 50.429 57.4999 50.429C52.4106 50.429 49.3571 46.6242 49.3571 40.2504C49.3571 38.0908 50.215 36.0196 51.7421 34.4925C53.2691 32.9655 55.3403 32.1076 57.4999 32.1076Z" fill="black"/>
<path d="M57.4999 54.5004C63.5786 54.5004 69.7142 50.0931 69.7142 40.2504C69.7142 37.011 68.4274 33.9042 66.1367 31.6136C63.8461 29.323 60.7394 28.0361 57.4999 28.0361C54.2605 28.0361 51.1537 29.323 48.8631 31.6136C46.5725 33.9042 45.2856 37.011 45.2856 40.2504C45.2856 50.0931 51.4213 54.5004 57.4999 54.5004ZM57.4999 32.1076C59.6596 32.1076 61.7307 32.9655 63.2578 34.4925C64.7849 36.0196 65.6428 38.0908 65.6428 40.2504C65.6428 46.6242 62.5892 50.429 57.4999 50.429C52.4106 50.429 49.3571 46.6242 49.3571 40.2504C49.3571 38.0908 50.215 36.0196 51.7421 34.4925C53.2691 32.9655 55.3403 32.1076 57.4999 32.1076Z" fill="url(#paint0_linear_128_4)"/>
<path d="M57.5003 58.5723C44.944 58.5723 35.1074 63.9934 35.1074 70.9148C35.1074 77.3945 43.0589 80.9651 57.5003 80.9651C71.9416 80.9651 79.8931 77.3945 79.8931 70.9148C79.8931 63.9934 70.0566 58.5723 57.5003 58.5723ZM57.5003 76.8937C46.369 76.8937 39.1789 74.5465 39.1789 70.9148C39.1789 67.0022 46.711 62.6437 57.5003 62.6437C68.2896 62.6437 75.8217 67.0022 75.8217 70.9148C75.8217 74.5465 68.6316 76.8937 57.5003 76.8937Z" fill="black"/>
<path d="M57.5003 58.5723C44.944 58.5723 35.1074 63.9934 35.1074 70.9148C35.1074 77.3945 43.0589 80.9651 57.5003 80.9651C71.9416 80.9651 79.8931 77.3945 79.8931 70.9148C79.8931 63.9934 70.0566 58.5723 57.5003 58.5723ZM57.5003 76.8937C46.369 76.8937 39.1789 74.5465 39.1789 70.9148C39.1789 67.0022 46.711 62.6437 57.5003 62.6437C68.2896 62.6437 75.8217 67.0022 75.8217 70.9148C75.8217 74.5465 68.6316 76.8937 57.5003 76.8937Z" fill="url(#paint1_linear_128_4)"/>
<defs>
<linearGradient id="paint0_linear_128_4" x1="45.2856" y1="39.3276" x2="74.5356" y2="46.3719" gradientUnits="userSpaceOnUse">
<stop stop-color="#12C2E9"/>
<stop offset="0.46314" stop-color="#C471ED"/>
<stop offset="1" stop-color="#F64F59"/>
</linearGradient>
<linearGradient id="paint1_linear_128_4" x1="35.1074" y1="68.1265" x2="79.7007" y2="91.3956" gradientUnits="userSpaceOnUse">
<stop stop-color="#12C2E9"/>
<stop offset="0.46314" stop-color="#C471ED"/>
<stop offset="1" stop-color="#F64F59"/>
</linearGradient>
</defs>
</svg>
