<svg width="115" height="109" viewBox="0 0 115 109" fill="none" xmlns="http://www.w3.org/2000/svg">
<rect opacity="0.2" width="115" height="109" rx="10" fill="#070D10"/>
<path fill-rule="evenodd" clip-rule="evenodd" d="M38.3474 77.3865L34.5741 59.1263L34.6523 59.0872C33.0968 59.0872 31.6049 58.4692 30.505 57.3693C29.405 56.2693 28.7871 54.7775 28.7871 53.222C28.7871 51.6664 29.405 50.1746 30.505 49.0746C31.6049 47.9747 33.0968 47.3568 34.6523 47.3568H46.3827V39.5365C46.3827 36.4254 47.6185 33.4418 49.8184 31.2419C52.0183 29.042 55.002 27.8062 58.113 27.8062C61.2241 27.8062 64.2078 29.042 66.4077 31.2419C68.6075 33.4418 69.8434 36.4254 69.8434 39.5365V47.3568H81.1437C82.6992 47.2842 84.2199 47.8325 85.3712 48.8811C86.5224 49.9297 87.21 51.3927 87.2826 52.9483C87.3552 54.5038 86.8068 56.0245 85.7582 57.1757C84.7096 58.327 83.2466 59.0146 81.6911 59.0872L77.9374 77.3865C77.6092 78.9805 76.7418 80.4126 75.4812 81.4417C74.2206 82.4709 72.6438 83.0341 71.0165 83.0367H68.729C68.2105 83.0367 67.7132 82.8307 67.3466 82.464C66.9799 82.0974 66.774 81.6001 66.774 81.0816C66.774 80.5631 66.9799 80.0658 67.3466 79.6992C67.7132 79.3325 68.2105 79.1265 68.729 79.1265H71.0165C71.7448 79.1247 72.4505 78.8734 73.0161 78.4145C73.5817 77.9556 73.9731 77.3168 74.125 76.6045L77.6637 59.1458H38.5624L42.1206 76.6045C42.2685 77.3152 42.656 77.9536 43.2184 78.4127C43.7807 78.8718 44.4837 79.1238 45.2096 79.1265H51.6418C52.1603 79.1265 52.6576 79.3325 53.0242 79.6992C53.3909 80.0658 53.5969 80.5631 53.5969 81.0816C53.5969 81.6001 53.3909 82.0974 53.0242 82.464C52.6576 82.8307 52.1603 83.0367 51.6418 83.0367H45.2683C43.6409 83.0341 42.0642 82.4709 40.8036 81.4417C39.543 80.4126 38.6755 78.9805 38.3474 77.3865ZM52.5051 34.0459C51.0385 35.5125 50.2146 37.5016 50.2146 39.5756V47.3959H65.8551V39.5756C65.8551 37.5016 65.0312 35.5125 63.5646 34.0459C62.098 32.5793 60.1089 31.7554 58.0348 31.7554C55.9608 31.7554 53.9717 32.5793 52.5051 34.0459ZM81.1437 51.306H34.6523C34.1338 51.306 33.6365 51.512 33.2699 51.8786C32.9032 52.2453 32.6972 52.7426 32.6972 53.2611C32.6972 53.7796 32.9032 54.2769 33.2699 54.6435C33.6365 55.0101 34.1338 55.2161 34.6523 55.2161H81.1437C81.6622 55.2161 82.1595 55.0101 82.5261 54.6435C82.8928 54.2769 83.0987 53.7796 83.0987 53.2611C83.0987 52.7426 82.8928 52.2453 82.5261 51.8786C82.1595 51.512 81.6622 51.306 81.1437 51.306ZM69.1591 63.7016C69.2455 63.4507 69.2799 63.1847 69.2603 62.9201C69.2406 62.6554 69.1672 62.3975 69.0447 62.1621C68.9221 61.9266 68.7529 61.7186 68.5473 61.5508C68.3417 61.3829 68.1041 61.2586 67.849 61.1855C67.5938 61.1124 67.3265 61.092 67.0632 61.1256C66.7999 61.1592 66.5462 61.2461 66.3176 61.3809C66.0889 61.5157 65.8902 61.6956 65.7333 61.9097C65.5765 62.1239 65.4649 62.3677 65.4054 62.6263L62.2773 73.5942C62.1908 73.8452 62.1564 74.1111 62.1761 74.3758C62.1957 74.6405 62.2691 74.8984 62.3917 75.1338C62.5143 75.3692 62.6835 75.5772 62.889 75.7451C63.0946 75.913 63.3322 76.0372 63.5874 76.1103C63.8425 76.1834 64.1099 76.2038 64.3732 76.1702C64.6364 76.1366 64.8901 76.0498 65.1188 75.915C65.3474 75.7802 65.5462 75.6002 65.703 75.3861C65.8598 75.172 65.9714 74.9282 66.031 74.6695L69.1591 63.7016ZM47.966 61.3158C47.4682 61.461 47.0485 61.798 46.7992 62.2526C46.5498 62.7073 46.4913 63.2423 46.6365 63.7401L49.7646 74.708C49.8242 74.9666 49.9358 75.2105 50.0926 75.4246C50.2494 75.6387 50.4482 75.8187 50.6768 75.9535C50.9055 76.0883 51.1592 76.1751 51.4224 76.2087C51.6857 76.2423 51.9531 76.2219 52.2082 76.1488C52.4634 76.0757 52.701 75.9515 52.9065 75.7836C53.1121 75.6157 53.2813 75.4077 53.4039 75.1723C53.5265 74.9369 53.5999 74.679 53.6195 74.4143C53.6392 74.1496 53.6048 73.8837 53.5183 73.6327L50.3902 62.6648C50.3204 62.4166 50.2022 62.1846 50.0423 61.9823C49.8825 61.7799 49.6842 61.6112 49.4588 61.4858C49.2335 61.3604 48.9856 61.2808 48.7294 61.2517C48.4732 61.2225 48.2137 61.2443 47.966 61.3158Z" fill="url(#paint0_linear_94_7)"/>
<defs>
<linearGradient id="paint0_linear_94_7" x1="28.7871" y1="51.3712" x2="97.6396" y2="70.399" gradientUnits="userSpaceOnUse">
<stop stop-color="#12C2E9"/>
<stop offset="0.46314" stop-color="#C471ED"/>
<stop offset="1" stop-color="#F64F59"/>
</linearGradient>
</defs>
</svg>
