<svg width="27" height="30" viewBox="0 0 27 30" fill="none" xmlns="http://www.w3.org/2000/svg">
<path d="M1.49625e-05 11.1683V26.5918C1.29882e-05 27.0402 0.0885059 27.4843 0.260422 27.8984C0.432339 28.3126 0.684299 28.6888 1.00186 29.0054C1.31943 29.322 1.69635 29.5729 2.11104 29.7436C2.52572 29.9143 2.97002 30.0014 3.41846 30.0001H22.8874C23.7913 30.0001 24.6582 29.641 25.2974 29.0018C25.9366 28.3626 26.2957 27.4957 26.2957 26.5918V11.1683C26.2957 10.2635 25.9369 9.3955 25.298 8.75471C24.6592 8.11392 23.7923 7.75258 22.8874 7.7499H20.723C21.0215 7.44205 21.286 7.10297 21.5119 6.73853C21.9444 6.01426 22.1828 5.19069 22.204 4.34738C22.2253 3.50408 22.0287 2.66954 21.6333 1.9244C21.2893 1.32371 20.7887 0.827685 20.1849 0.489254C19.581 0.150824 18.8966 -0.0173122 18.2047 0.00278692C17.447 -0.0213668 16.693 0.11891 15.9946 0.413967C15.2963 0.709024 14.6701 1.15186 14.1592 1.71201C13.7551 2.13986 13.4145 2.62351 13.1479 3.14816C12.8968 2.6266 12.5733 2.14312 12.1871 1.71201C11.6762 1.15186 11.05 0.709024 10.3517 0.413967C9.6533 0.11891 8.89931 -0.0213668 8.14157 0.00278692C7.44935 -0.0179716 6.76439 0.148695 6.1591 0.485167C5.5538 0.821639 5.05067 1.31541 4.7029 1.91428C4.30746 2.65943 4.11088 3.49396 4.13214 4.33727C4.1534 5.18057 4.39178 6.00414 4.82426 6.72842C5.05018 7.09286 5.31466 7.43194 5.61313 7.73979H3.41846C2.96869 7.73979 2.52334 7.82854 2.10793 8.00097C1.69253 8.17339 1.31523 8.4261 0.99767 8.7446C0.680106 9.0631 0.428517 9.44114 0.25732 9.85706C0.086123 10.273 -0.00131571 10.7186 1.49625e-05 11.1683ZM24.273 11.1683V26.5918C24.273 26.7737 24.2371 26.9539 24.1675 27.122C24.0979 27.2901 23.9958 27.4429 23.8671 27.5715C23.7385 27.7002 23.5857 27.8023 23.4176 27.8719C23.2495 27.9415 23.0693 27.9774 22.8874 27.9774H14.1592L14.23 9.77265H22.9177C23.2808 9.78318 23.6255 9.93486 23.8786 10.1955C24.1316 10.4561 24.2731 10.8051 24.273 11.1683ZM18.2047 2.06599C18.5422 2.04324 18.8794 2.11551 19.1779 2.27461C19.4764 2.4337 19.7244 2.67326 19.8937 2.96611C20.1161 3.40276 20.2208 3.88977 20.1978 4.37922C20.1747 4.86867 20.0246 5.34368 19.7622 5.7575C19.3274 6.51603 18.1845 7.78024 15.4336 7.78024H14.1592C14.1592 6.55648 14.3918 4.38203 15.565 3.09759C15.8973 2.73346 16.3068 2.44822 16.7635 2.26273C17.2202 2.07725 17.7127 1.9962 18.2047 2.02553V2.06599ZM6.5436 5.71704C6.28121 5.30323 6.1311 4.82822 6.10804 4.33877C6.08499 3.84932 6.18979 3.3623 6.41212 2.92565C6.58066 2.63442 6.82703 2.39591 7.12359 2.23692C7.42015 2.07792 7.75515 2.00472 8.091 2.02553C8.5701 1.99612 9.04986 2.07135 9.49697 2.246C9.94407 2.42065 10.3478 2.69053 10.6801 3.03691C11.8634 4.35169 12.0758 6.52614 12.1365 7.7499H10.8723C8.091 7.7499 6.97849 6.47557 6.5436 5.71704ZM2.02276 11.1683C2.02276 10.7982 2.16981 10.4432 2.43155 10.1814C2.69329 9.9197 3.04829 9.77265 3.41846 9.77265H12.1365L12.0657 27.9774H3.41846C3.23565 27.9787 3.05439 27.9438 2.88511 27.8748C2.71583 27.8058 2.56189 27.7039 2.43216 27.5751C2.30242 27.4463 2.19945 27.2931 2.12919 27.1244C2.05893 26.9556 2.02276 26.7746 2.02276 26.5918V11.1683Z" fill="url(#paint0_linear_78_77)"/>
<defs>
<linearGradient id="paint0_linear_78_77" x1="-4.60661e-07" y1="12.8001" x2="31.6562" y2="20.0395" gradientUnits="userSpaceOnUse">
<stop stop-color="#12C2E9"/>
<stop offset="0.46314" stop-color="#C471ED"/>
<stop offset="1" stop-color="#F64F59"/>
</linearGradient>
</defs>
</svg>
