<svg width="395" height="395" viewBox="0 0 395 395" fill="none" xmlns="http://www.w3.org/2000/svg">
<path opacity="0.2" d="M124.972 269.277C85.1233 229.428 85.1233 164.82 124.972 124.971C164.821 85.1227 229.428 85.1227 269.277 124.971C309.126 164.82 309.126 229.428 269.277 269.277C229.428 309.125 164.821 309.125 124.972 269.277Z" fill="url(#paint0_linear_78_14)"/>
<path d="M108.222 173.302C102.887 171.873 97.352 175.036 96.4513 180.485C93.5024 198.327 95.3396 216.697 101.863 233.691C109.585 253.809 123.478 270.965 141.55 282.701C159.622 294.437 180.946 300.151 202.465 299.023C223.984 297.895 244.594 289.984 261.34 276.423C278.086 262.862 290.11 244.348 295.687 223.534C301.264 202.719 300.109 180.674 292.387 160.556C284.664 140.439 270.771 123.283 252.699 111.547C237.433 101.632 219.846 96.016 201.781 95.191C196.264 94.939 192.019 99.6957 192.308 105.211L196.404 183.379C196.76 190.163 190.392 195.32 183.83 193.562L108.222 173.302Z" fill="url(#paint1_linear_78_14)"/>
<defs>
<linearGradient id="paint0_linear_78_14" x1="289.843" y1="145.537" x2="71.301" y2="260.292" gradientUnits="userSpaceOnUse">
<stop stop-color="#12C2E9"/>
<stop offset="0.46314" stop-color="#C471ED"/>
<stop offset="1" stop-color="#F64F59"/>
</linearGradient>
<linearGradient id="paint1_linear_78_14" x1="317.556" y1="301.369" x2="88.602" y2="212.314" gradientUnits="userSpaceOnUse">
<stop stop-color="#F64F59"/>
<stop offset="0.496051" stop-color="#C471ED"/>
<stop offset="1" stop-color="#12C2E9"/>
</linearGradient>
</defs>
</svg>
