<svg width="115" height="109" viewBox="0 0 115 109" fill="none" xmlns="http://www.w3.org/2000/svg">
<rect opacity="0.2" width="115" height="109" rx="10" fill="#070D10"/>
<path d="M50.0293 74.2422H43.9531C37.3622 74.2422 32 68.88 32 62.2891V45.9531C32 39.3622 37.3622 34 43.9531 34H71.0469C77.6378 34 83 39.3622 83 45.9531V51.9297C83 53.03 82.1081 53.9219 81.0078 53.9219C79.9075 53.9219 79.0156 53.03 79.0156 51.9297V45.9531C79.0156 41.5592 75.4408 37.9844 71.0469 37.9844H43.9531C39.5592 37.9844 35.9844 41.5592 35.9844 45.9531V62.2891C35.9844 66.683 39.5592 70.2578 43.9531 70.2578H50.0293C51.1296 70.2578 52.0215 71.1497 52.0215 72.25C52.0215 73.3503 51.1296 74.2422 50.0293 74.2422ZM83 68.166V62.9043C83 59.5441 80.2664 56.8105 76.9063 56.8105H71.6445C70.5442 56.8105 69.6523 57.7024 69.6523 58.8027C69.6523 59.903 70.5442 60.7949 71.6445 60.7949H76.9063C78.0693 60.7949 79.0156 61.7412 79.0156 62.9043V68.166C79.0156 69.2663 79.9075 70.1582 81.0078 70.1582C82.1081 70.1582 83 69.2663 83 68.166ZM76.0727 66.9511C76.8325 66.1554 76.8034 64.8943 76.0077 64.1344C75.212 63.3746 73.951 63.4037 73.1911 64.1994C69.5143 68.0496 64.3522 70.2578 59.0285 70.2578H58.0977C56.9974 70.2578 56.1055 71.1497 56.1055 72.25C56.1055 73.3503 56.9974 74.2422 58.0977 74.2422H59.0285C65.4355 74.2422 71.6478 71.5847 76.0727 66.9511Z" fill="black"/>
<path d="M50.0293 74.2422H43.9531C37.3622 74.2422 32 68.88 32 62.2891V45.9531C32 39.3622 37.3622 34 43.9531 34H71.0469C77.6378 34 83 39.3622 83 45.9531V51.9297C83 53.03 82.1081 53.9219 81.0078 53.9219C79.9075 53.9219 79.0156 53.03 79.0156 51.9297V45.9531C79.0156 41.5592 75.4408 37.9844 71.0469 37.9844H43.9531C39.5592 37.9844 35.9844 41.5592 35.9844 45.9531V62.2891C35.9844 66.683 39.5592 70.2578 43.9531 70.2578H50.0293C51.1296 70.2578 52.0215 71.1497 52.0215 72.25C52.0215 73.3503 51.1296 74.2422 50.0293 74.2422ZM83 68.166V62.9043C83 59.5441 80.2664 56.8105 76.9063 56.8105H71.6445C70.5442 56.8105 69.6523 57.7024 69.6523 58.8027C69.6523 59.903 70.5442 60.7949 71.6445 60.7949H76.9063C78.0693 60.7949 79.0156 61.7412 79.0156 62.9043V68.166C79.0156 69.2663 79.9075 70.1582 81.0078 70.1582C82.1081 70.1582 83 69.2663 83 68.166ZM76.0727 66.9511C76.8325 66.1554 76.8034 64.8943 76.0077 64.1344C75.212 63.3746 73.951 63.4037 73.1911 64.1994C69.5143 68.0496 64.3522 70.2578 59.0285 70.2578H58.0977C56.9974 70.2578 56.1055 71.1497 56.1055 72.25C56.1055 73.3503 56.9974 74.2422 58.0977 74.2422H59.0285C65.4355 74.2422 71.6478 71.5847 76.0727 66.9511Z" fill="url(#paint0_linear_128_7)"/>
<defs>
<linearGradient id="paint0_linear_128_7" x1="32" y1="45.0022" x2="92.49" y2="60.7842" gradientUnits="userSpaceOnUse">
<stop stop-color="#12C2E9"/>
<stop offset="0.46314" stop-color="#C471ED"/>
<stop offset="1" stop-color="#F64F59"/>
</linearGradient>
</defs>
</svg>
