<svg width="50" height="50" viewBox="0 0 50 50" fill="none" xmlns="http://www.w3.org/2000/svg">
<g clip-path="url(#clip0_78_201)">
<path fill-rule="evenodd" clip-rule="evenodd" d="M33.9864 50H16.0136C9.55293 50 4.29688 44.7439 4.29688 38.2833V11.7167C4.29688 5.25605 9.55293 0 16.0136 0H33.9863C40.4471 0 45.7031 5.25605 45.7031 11.7167V38.2832C45.7031 44.7439 40.4471 50 33.9864 50ZM16.0136 3.90625C11.7069 3.90625 8.20312 7.41006 8.20312 11.7167V38.2832C8.20312 42.5899 11.7069 46.0938 16.0136 46.0938H33.9863C38.2931 46.0938 41.7969 42.5899 41.7969 38.2833V11.7167C41.7969 7.41006 38.2931 3.90625 33.9864 3.90625H16.0136ZM18.2617 22.9492C19.6101 22.9492 20.7031 21.8562 20.7031 20.5078C20.7031 19.1595 19.6101 18.0664 18.2617 18.0664C16.9134 18.0664 15.8203 19.1595 15.8203 20.5078C15.8203 21.8562 16.9134 22.9492 18.2617 22.9492ZM32.5195 19.9219H35.8398C36.9186 19.9219 37.793 19.0475 37.793 17.9688C37.793 16.89 36.9186 16.0156 35.8398 16.0156H32.5195C30.9041 16.0156 29.5898 14.7014 29.5898 13.0859V9.76562C29.5898 8.68691 28.7154 7.8125 27.6367 7.8125C26.558 7.8125 25.6836 8.68691 25.6836 9.76562V13.0859C25.6836 16.8553 28.7502 19.9219 32.5195 19.9219ZM30.957 38.5742H17.4805C16.4018 38.5742 15.5273 37.6998 15.5273 36.6211C15.5273 35.5424 16.4018 34.668 17.4805 34.668H30.957C32.0357 34.668 32.9102 35.5424 32.9102 36.6211C32.9102 37.6998 32.0357 38.5742 30.957 38.5742ZM17.4805 31.0547H30.957C32.0357 31.0547 32.9102 30.1803 32.9102 29.1016C32.9102 28.0229 32.0357 27.1484 30.957 27.1484H17.4805C16.4018 27.1484 15.5273 28.0229 15.5273 29.1016C15.5273 30.1803 16.4018 31.0547 17.4805 31.0547Z" fill="url(#paint0_linear_78_201)"/>
</g>
<defs>
<linearGradient id="paint0_linear_78_201" x1="4.29687" y1="21.3333" x2="54.4115" y2="32.1611" gradientUnits="userSpaceOnUse">
<stop stop-color="#12C2E9"/>
<stop offset="0.46314" stop-color="#C471ED"/>
<stop offset="1" stop-color="#F64F59"/>
</linearGradient>
<clipPath id="clip0_78_201">
<rect width="50" height="50" fill="white"/>
</clipPath>
</defs>
</svg>
