<svg width="137" height="51" viewBox="0 0 137 51" fill="none" xmlns="http://www.w3.org/2000/svg">
<path d="M60.3556 0V10.3659H54.3614C49.4007 10.3659 46.9203 12.8537 46.9203 17.8293V24.4634H49.8141C53.8102 24.4634 57.1174 25.7073 59.7355 28.1951C62.4915 30.6829 63.8695 33.7927 63.8695 37.5244C63.8695 41.5325 62.4915 44.7805 59.7355 47.2683C57.1174 49.7561 53.8102 51 49.8141 51C45.8179 51 42.5108 49.687 39.8926 47.061C37.2744 44.435 35.9653 41.1179 35.9653 37.1098V17.8293C35.9653 5.94309 41.8907 0 53.7413 0H60.3556ZM24.3903 0V10.3659H18.3961C13.4353 10.3659 10.955 12.8537 10.955 17.8293V24.4634H13.8487C17.8449 24.4634 21.152 25.7073 23.7702 28.1951C26.5262 30.6829 27.9041 33.7927 27.9041 37.5244C27.9041 41.5325 26.5262 44.7805 23.7702 47.2683C21.152 49.7561 17.8449 51 13.8487 51C9.85257 51 6.54542 49.687 3.92725 47.061C1.30908 44.435 0 41.1179 0 37.1098V17.8293C0 5.94309 5.92533 0 17.776 0H24.3903Z" fill="#FFFDFD"/>
<path d="M60.3556 0V10.3659H54.3614C49.4007 10.3659 46.9203 12.8537 46.9203 17.8293V24.4634H49.8141C53.8102 24.4634 57.1174 25.7073 59.7355 28.1951C62.4915 30.6829 63.8695 33.7927 63.8695 37.5244C63.8695 41.5325 62.4915 44.7805 59.7355 47.2683C57.1174 49.7561 53.8102 51 49.8141 51C45.8179 51 42.5108 49.687 39.8926 47.061C37.2744 44.435 35.9653 41.1179 35.9653 37.1098V17.8293C35.9653 5.94309 41.8907 0 53.7413 0H60.3556ZM24.3903 0V10.3659H18.3961C13.4353 10.3659 10.955 12.8537 10.955 17.8293V24.4634H13.8487C17.8449 24.4634 21.152 25.7073 23.7702 28.1951C26.5262 30.6829 27.9041 33.7927 27.9041 37.5244C27.9041 41.5325 26.5262 44.7805 23.7702 47.2683C21.152 49.7561 17.8449 51 13.8487 51C9.85257 51 6.54542 49.687 3.92725 47.061C1.30908 44.435 0 41.1179 0 37.1098V17.8293C0 5.94309 5.92533 0 17.776 0H24.3903Z" fill="url(#paint0_linear_78_233)"/>
<path d="M76.8511 51V40.6342H82.8453C87.806 40.6342 90.2864 38.1463 90.2864 33.1707V26.5366H87.3926C83.3965 26.5366 80.0204 25.2927 77.2645 22.8049C74.6463 20.3171 73.3372 17.2073 73.3372 13.4756C73.3372 9.46748 74.6463 6.21951 77.2645 3.73171C80.0204 1.2439 83.3965 0 87.3926 0C91.3888 0 94.6959 1.31301 97.3141 3.93902C99.9323 6.56504 101.241 9.88211 101.241 13.8902V33.1707C101.241 45.0569 95.316 51 83.4654 51H76.8511ZM112.61 51V40.6342H118.604C123.565 40.6342 126.045 38.1463 126.045 33.1707V26.5366H123.151C119.155 26.5366 115.779 25.2927 113.023 22.8049C110.405 20.3171 109.096 17.2073 109.096 13.4756C109.096 9.46748 110.405 6.21951 113.023 3.73171C115.779 1.2439 119.155 0 123.151 0C127.147 0 130.455 1.31301 133.073 3.93902C135.691 6.56504 137 9.88211 137 13.8902V33.1707C137 45.0569 131.075 51 119.224 51H112.61Z" fill="#FFFDFD"/>
<path d="M76.8511 51V40.6342H82.8453C87.806 40.6342 90.2864 38.1463 90.2864 33.1707V26.5366H87.3926C83.3965 26.5366 80.0204 25.2927 77.2645 22.8049C74.6463 20.3171 73.3372 17.2073 73.3372 13.4756C73.3372 9.46748 74.6463 6.21951 77.2645 3.73171C80.0204 1.2439 83.3965 0 87.3926 0C91.3888 0 94.6959 1.31301 97.3141 3.93902C99.9323 6.56504 101.241 9.88211 101.241 13.8902V33.1707C101.241 45.0569 95.316 51 83.4654 51H76.8511ZM112.61 51V40.6342H118.604C123.565 40.6342 126.045 38.1463 126.045 33.1707V26.5366H123.151C119.155 26.5366 115.779 25.2927 113.023 22.8049C110.405 20.3171 109.096 17.2073 109.096 13.4756C109.096 9.46748 110.405 6.21951 113.023 3.73171C115.779 1.2439 119.155 0 123.151 0C127.147 0 130.455 1.31301 133.073 3.93902C135.691 6.56504 137 9.88211 137 13.8902V33.1707C137 45.0569 131.075 51 119.224 51H112.61Z" fill="url(#paint1_linear_78_233)"/>
<defs>
<linearGradient id="paint0_linear_78_233" x1="-2.40003e-06" y1="21.76" x2="116.385" y2="103.329" gradientUnits="userSpaceOnUse">
<stop stop-color="#12C2E9"/>
<stop offset="0.46314" stop-color="#C471ED"/>
<stop offset="1" stop-color="#F64F59"/>
</linearGradient>
<linearGradient id="paint1_linear_78_233" x1="-2.40003e-06" y1="21.76" x2="116.385" y2="103.329" gradientUnits="userSpaceOnUse">
<stop stop-color="#12C2E9"/>
<stop offset="0.46314" stop-color="#C471ED"/>
<stop offset="1" stop-color="#F64F59"/>
</linearGradient>
</defs>
</svg>
